<svg xmlns="http://www.w3.org/2000/svg" viewBox="0 0 144 144">
  <defs>
    <linearGradient id="stellar-gradient" x1="0%" y1="0%" x2="100%" y2="100%">
      <stop offset="0%" style="stop-color:#000000"/>
      <stop offset="100%" style="stop-color:#434343"/>
    </linearGradient>
  </defs>
  <circle cx="72" cy="72" r="72" fill="url(#stellar-gradient)"/>
  <g fill="#FFFFFF">
    <path d="M99.3,58.7L37.9,89.8c-1.9,1-4.2,0.3-5.2-1.6l0,0c-1-1.9-0.3-4.2,1.6-5.2l61.4-31.1c1.9-1,4.2-0.3,5.2,1.6l0,0 C101.9,55.4,101.2,57.7,99.3,58.7z"/>
    <path d="M107.6,75.8L46.2,107c-1.9,1-4.2,0.3-5.2-1.6l0,0c-1-1.9-0.3-4.2,1.6-5.2l61.4-31.1c1.9-1,4.2-0.3,5.2,1.6l0,0 C110.2,72.6,109.5,74.9,107.6,75.8z"/>
    <path d="M32.5,68.7l9.9-5c1.4-0.7,3.1-0.2,3.8,1.2l0,0c0.7,1.4,0.2,3.1-1.2,3.8l-9.9,5c-1.4,0.7-3.1,0.2-3.8-1.2l0,0 C30.6,71.1,31.1,69.4,32.5,68.7z"/>
    <path d="M98.8,35l9.9-5c1.4-0.7,3.1-0.2,3.8,1.2l0,0c0.7,1.4,0.2,3.1-1.2,3.8l-9.9,5c-1.4,0.7-3.1,0.2-3.8-1.2l0,0 C96.9,37.4,97.4,35.7,98.8,35z"/>
  </g>
</svg>
